<svg width="296" height="174" viewBox="0 0 296 174" fill="none" xmlns="http://www.w3.org/2000/svg">
<path d="M273.266 2.14286H169.294V0H122.149V2.14286H17.7477C16.8241 2.14286 15.9096 2.32476 15.0563 2.67819C14.2031 3.03161 13.4278 3.54963 12.7747 4.20267C12.1216 4.8557 11.6036 5.63097 11.2501 6.48421C10.8967 7.33744 10.7148 8.25194 10.7148 9.17547V151.539C10.7148 153.404 11.4558 155.193 12.7747 156.512C14.0936 157.831 15.8825 158.571 17.7477 158.571H273.266C274.19 158.571 275.104 158.39 275.958 158.036C276.811 157.683 277.586 157.165 278.239 156.512C278.892 155.859 279.41 155.083 279.764 154.23C280.117 153.377 280.299 152.462 280.299 151.539V9.17547C280.299 8.25194 280.117 7.33744 279.764 6.4842C279.41 5.63096 278.892 4.8557 278.239 4.20266C277.586 3.54962 276.811 3.0316 275.958 2.67818C275.104 2.32476 274.19 2.14286 273.266 2.14286V2.14286Z" fill="#3F3D56"/>
<path d="M270.87 14.5714H20.1438V156H270.87V14.5714Z" fill="#8594A2"/>
<path d="M145.293 10.7143C146.713 10.7143 147.864 9.563 147.864 8.14284C147.864 6.72268 146.713 5.57141 145.293 5.57141C143.872 5.57141 142.721 6.72268 142.721 8.14284C142.721 9.563 143.872 10.7143 145.293 10.7143Z" fill="#8494A1"/>
<path d="M256.477 32.5713H244.592V20.6868H256.477V32.5713ZM245.108 32.0546H255.96V21.2035H245.108V32.0546Z" fill="#3F3D56"/>
<path d="M287.339 153.429H262.87V151.666C262.87 151.62 262.861 151.574 262.843 151.532C262.826 151.489 262.8 151.451 262.767 151.418C262.735 151.386 262.696 151.36 262.654 151.343C262.612 151.325 262.566 151.316 262.52 151.316H254.131C254.085 151.316 254.039 151.325 253.997 151.343C253.955 151.36 253.916 151.386 253.884 151.418C253.851 151.451 253.825 151.489 253.808 151.532C253.79 151.574 253.781 151.62 253.781 151.666V153.429H248.538V151.666C248.538 151.62 248.529 151.574 248.511 151.532C248.494 151.489 248.468 151.451 248.435 151.418C248.403 151.386 248.364 151.36 248.322 151.343C248.28 151.325 248.234 151.316 248.188 151.316H239.799C239.753 151.316 239.707 151.325 239.665 151.343C239.623 151.36 239.584 151.386 239.552 151.418C239.519 151.451 239.493 151.489 239.476 151.532C239.458 151.574 239.449 151.62 239.449 151.666V153.429H234.206V151.666C234.206 151.62 234.197 151.574 234.179 151.532C234.162 151.489 234.136 151.451 234.103 151.418C234.071 151.386 234.032 151.36 233.99 151.343C233.948 151.325 233.902 151.316 233.856 151.316H225.467C225.421 151.316 225.375 151.325 225.333 151.343C225.291 151.36 225.252 151.386 225.22 151.418C225.187 151.451 225.161 151.489 225.144 151.532C225.126 151.574 225.117 151.62 225.117 151.666V153.429H219.874V151.666C219.874 151.62 219.865 151.574 219.847 151.532C219.83 151.489 219.804 151.451 219.771 151.418C219.739 151.386 219.7 151.36 219.658 151.343C219.616 151.325 219.57 151.316 219.524 151.316H211.135C211.089 151.316 211.043 151.325 211.001 151.343C210.959 151.36 210.92 151.386 210.888 151.418C210.855 151.451 210.829 151.489 210.812 151.532C210.794 151.574 210.785 151.62 210.785 151.666V153.429H205.542V151.666C205.542 151.62 205.533 151.574 205.515 151.532C205.498 151.489 205.472 151.451 205.439 151.418C205.407 151.386 205.368 151.36 205.326 151.343C205.284 151.325 205.238 151.316 205.192 151.316H196.803C196.757 151.316 196.711 151.325 196.669 151.343C196.627 151.36 196.588 151.386 196.556 151.418C196.523 151.451 196.497 151.489 196.48 151.532C196.462 151.574 196.453 151.62 196.453 151.666V153.429H191.21V151.666C191.21 151.62 191.201 151.574 191.183 151.532C191.166 151.489 191.14 151.451 191.107 151.418C191.075 151.386 191.036 151.36 190.994 151.343C190.952 151.325 190.906 151.316 190.86 151.316H182.471C182.425 151.316 182.379 151.325 182.337 151.343C182.295 151.36 182.256 151.386 182.224 151.418C182.191 151.451 182.165 151.489 182.148 151.532C182.13 151.574 182.121 151.62 182.121 151.666V153.429H176.878V151.666C176.878 151.62 176.869 151.574 176.851 151.532C176.834 151.489 176.808 151.451 176.775 151.418C176.743 151.386 176.704 151.36 176.662 151.343C176.62 151.325 176.574 151.316 176.528 151.316H110.811C110.765 151.316 110.719 151.325 110.677 151.343C110.635 151.36 110.596 151.386 110.564 151.418C110.531 151.451 110.505 151.489 110.488 151.532C110.47 151.574 110.461 151.62 110.461 151.666V153.429H105.218V151.666C105.218 151.62 105.209 151.574 105.191 151.532C105.174 151.489 105.148 151.451 105.115 151.418C105.083 151.386 105.044 151.36 105.002 151.343C104.96 151.325 104.914 151.316 104.868 151.316H96.4788C96.4329 151.316 96.3874 151.325 96.345 151.343C96.3026 151.36 96.2641 151.386 96.2316 151.418C96.1992 151.451 96.1734 151.489 96.1559 151.532C96.1383 151.574 96.1292 151.62 96.1292 151.666V153.429H90.8858V151.666C90.8858 151.62 90.8768 151.574 90.8592 151.532C90.8417 151.489 90.8159 151.451 90.7835 151.418C90.751 151.386 90.7125 151.36 90.67 151.343C90.6276 151.325 90.5822 151.316 90.5363 151.316H82.1468C82.1009 151.316 82.0554 151.325 82.013 151.343C81.9706 151.36 81.9321 151.386 81.8996 151.418C81.8672 151.451 81.8414 151.489 81.8239 151.532C81.8063 151.574 81.7972 151.62 81.7972 151.666V153.429H76.5538V151.666C76.5538 151.62 76.5448 151.574 76.5272 151.532C76.5097 151.489 76.4839 151.451 76.4515 151.418C76.419 151.386 76.3805 151.36 76.338 151.343C76.2956 151.325 76.2502 151.316 76.2043 151.316H67.8148C67.7689 151.316 67.7235 151.325 67.681 151.343C67.6386 151.36 67.6001 151.386 67.5676 151.418C67.5352 151.451 67.5094 151.489 67.4919 151.532C67.4743 151.574 67.4652 151.62 67.4652 151.666V153.429H62.2218V151.666C62.2218 151.62 62.2128 151.574 62.1952 151.532C62.1777 151.489 62.1519 151.451 62.1195 151.418C62.087 151.386 62.0485 151.36 62.006 151.343C61.9636 151.325 61.9182 151.316 61.8723 151.316H53.4828C53.4369 151.316 53.3915 151.325 53.349 151.343C53.3066 151.36 53.2681 151.386 53.2356 151.418C53.2032 151.451 53.1774 151.489 53.1599 151.532C53.1423 151.574 53.1332 151.62 53.1332 151.666V153.429H47.8898V151.666C47.8898 151.62 47.8808 151.574 47.8632 151.532C47.8457 151.489 47.8199 151.451 47.7875 151.418C47.755 151.386 47.7165 151.36 47.6741 151.343C47.6316 151.325 47.5862 151.316 47.5403 151.316H39.1508C39.1049 151.316 39.0595 151.325 39.017 151.343C38.9746 151.36 38.9361 151.386 38.9036 151.418C38.8712 151.451 38.8454 151.489 38.8279 151.532C38.8103 151.574 38.8013 151.62 38.8013 151.666V153.429H33.5578V151.666C33.5578 151.62 33.5488 151.574 33.5312 151.532C33.5137 151.489 33.4879 151.451 33.4555 151.418C33.423 151.386 33.3845 151.36 33.3421 151.343C33.2996 151.325 33.2542 151.316 33.2083 151.316H24.8188C24.7729 151.316 24.7275 151.325 24.685 151.343C24.6426 151.36 24.6041 151.386 24.5716 151.418C24.5392 151.451 24.5134 151.489 24.4959 151.532C24.4783 151.574 24.4693 151.62 24.4693 151.666V153.429H8.38946C6.16444 153.429 4.03055 154.312 2.45722 155.886C0.883888 157.459 1.05989e-06 159.593 0 161.818V165.611C5.29946e-06 167.836 0.883894 169.97 2.45722 171.543C4.03055 173.116 6.16444 174 8.38946 174H287.339C289.564 174 291.698 173.116 293.271 171.543C294.845 169.97 295.729 167.836 295.729 165.611V161.818C295.729 159.593 294.845 157.459 293.271 155.886C291.698 154.312 289.564 153.429 287.339 153.429V153.429Z" fill="#3F3D56"/>
<path d="M255.371 93.3781H174.645V47.4225H255.371V93.3781ZM175.445 92.5789H254.572V48.2217H175.445V92.5789Z" fill="#3F3D56"/>
<path d="M107.507 102.569H35.5729V57.8124H107.507V102.569ZM36.3721 101.77H106.708V58.6117H36.3721V101.77Z" fill="#3F3D56"/>
<path d="M69.1798 85.3858L69.1109 84.4921C68.9048 82.6365 69.5234 80.6088 71.2417 78.5471C72.7883 76.7254 73.6475 75.3853 73.6475 73.8387C73.6475 72.0861 72.5477 70.9177 70.3825 70.8834C69.1442 70.8784 67.9336 71.2499 66.9113 71.9488L66.0865 69.7837C67.2208 68.9587 69.1797 68.4088 71.0011 68.4088C74.9535 68.4088 76.7406 70.849 76.7406 73.4606C76.7406 75.7978 75.4346 77.4817 73.7849 79.4403C72.2728 81.2273 71.7229 82.7395 71.8259 84.4921L71.8603 85.3858L69.1798 85.3858ZM68.4236 90.1971C68.4051 89.9168 68.445 89.6356 68.5407 89.3714C68.6364 89.1072 68.7859 88.8658 68.9797 88.6623C69.1734 88.4588 69.4073 88.2978 69.6665 88.1893C69.9257 88.0808 70.2046 88.0273 70.4856 88.032C71.6886 88.032 72.5134 88.9253 72.5134 90.1971C72.5248 90.4728 72.4803 90.7478 72.3827 91.0058C72.285 91.2638 72.1362 91.4994 71.9452 91.6984C71.7542 91.8975 71.5249 92.0558 71.2712 92.164C71.0174 92.2722 70.7444 92.328 70.4685 92.328C70.1927 92.328 69.9196 92.2722 69.6659 92.164C69.4121 92.0558 69.1828 91.8975 68.9918 91.6984C68.8008 91.4994 68.652 91.2638 68.5544 91.0058C68.4567 90.7478 68.4123 90.4728 68.4236 90.1971V90.1971Z" fill="#D0CDE1"/>
<path d="M212.648 75.3954L212.579 74.5018C212.373 72.6461 212.992 70.6184 214.71 68.5567C216.257 66.735 217.116 65.3949 217.116 63.8484C217.116 62.0958 216.016 60.9274 213.851 60.893C212.613 60.888 211.402 61.2596 210.38 61.9584L209.555 59.7933C210.689 58.9683 212.648 58.4185 214.469 58.4185C218.422 58.4185 220.209 60.8587 220.209 63.4702C220.209 65.8074 218.903 67.4913 217.253 69.45C215.741 71.2369 215.191 72.7491 215.294 74.5017L215.329 75.3954L212.648 75.3954ZM211.892 80.2068C211.873 79.9264 211.913 79.6452 212.009 79.3811C212.105 79.1169 212.254 78.8754 212.448 78.6719C212.642 78.4685 212.876 78.3074 213.135 78.1989C213.394 78.0904 213.673 78.0369 213.954 78.0417C215.157 78.0417 215.982 78.9349 215.982 80.2068C215.993 80.4824 215.949 80.7575 215.851 81.0155C215.753 81.2735 215.605 81.509 215.414 81.7081C215.223 81.9071 214.993 82.0655 214.739 82.1737C214.486 82.2818 214.213 82.3376 213.937 82.3376C213.661 82.3376 213.388 82.2818 213.134 82.1737C212.88 82.0655 212.651 81.9071 212.46 81.7081C212.269 81.509 212.12 81.2735 212.023 81.0155C211.925 80.7575 211.881 80.4824 211.892 80.2068V80.2068Z" fill="#D0CDE1"/>
<path d="M146.919 138.722C165.965 138.722 181.404 123.284 181.404 104.239C181.404 85.194 165.965 69.7552 146.919 69.7552C127.874 69.7552 112.434 85.194 112.434 104.239C112.434 123.284 127.874 138.722 146.919 138.722Z" fill="#2F2E41"/>
<path d="M133.6 151.461L123.291 149.595L126.635 128.07L136.944 129.936L133.6 151.461Z" fill="#2F2E41"/>
<path d="M157.562 133.668L147.253 131.802L143.909 150.271L154.218 152.138L157.562 133.668Z" fill="#2F2E41"/>
<path d="M161.108 153.144C161.466 151.371 157.925 149.161 153.198 148.207C148.472 147.253 144.351 147.916 143.993 149.689C143.635 151.461 147.176 153.671 151.903 154.625C156.629 155.579 160.751 154.916 161.108 153.144Z" fill="#2F2E41"/>
<path d="M139.637 152.587C139.874 150.795 136.192 148.828 131.412 148.195C126.632 147.562 122.564 148.502 122.327 150.294C122.089 152.086 125.772 154.053 130.552 154.686C135.332 155.319 139.399 154.379 139.637 152.587Z" fill="#2F2E41"/>
<path d="M149.334 107.589C155.843 107.589 161.12 102.313 161.12 95.8039C161.12 89.2949 155.843 84.0184 149.334 84.0184C142.824 84.0184 137.547 89.2949 137.547 95.8039C137.547 102.313 142.824 107.589 149.334 107.589Z" fill="white"/>
<path d="M154.178 95.5079C156.347 95.5079 158.106 93.749 158.106 91.5794C158.106 89.4097 156.347 87.6509 154.178 87.6509C152.008 87.6509 150.249 89.4097 150.249 91.5794C150.249 93.749 152.008 95.5079 154.178 95.5079Z" fill="#3F3D56"/>
<path d="M119.715 66.7243C119.197 53.958 130.2 43.1448 144.292 42.5724C158.384 42 170.228 51.8852 170.746 64.6515C171.265 77.4179 161.469 80.3185 147.377 80.8909C133.286 81.4633 120.234 79.4907 119.715 66.7243Z" fill="white"/>
<path d="M179.971 103.232C189.253 101.105 196.236 97.018 195.568 94.1042C194.9 91.1904 186.834 90.553 177.552 92.6805C168.27 94.808 161.287 98.8948 161.955 101.809C162.623 104.722 170.689 105.36 179.971 103.232Z" fill="#2F2E41"/>
<path d="M112.278 114.489C121.56 112.362 128.543 108.275 127.875 105.361C127.207 102.447 119.141 101.81 109.859 103.937C100.577 106.065 93.5937 110.152 94.2616 113.065C94.9295 115.979 102.996 116.617 112.278 114.489Z" fill="#2F2E41"/>
<path d="M137.448 117.828C137.264 118.844 137.282 119.885 137.501 120.894C137.72 121.902 138.135 122.857 138.723 123.705C139.311 124.553 140.06 125.277 140.928 125.835C141.795 126.394 142.765 126.775 143.78 126.959C144.795 127.143 145.837 127.125 146.845 126.906C147.854 126.688 148.809 126.272 149.657 125.685C150.505 125.097 151.229 124.347 151.787 123.48C152.346 122.612 152.728 121.643 152.911 120.628C153.684 116.358 150.383 114.847 146.113 114.074C141.843 113.301 138.221 113.558 137.448 117.828Z" fill="white"/>
<path d="M72.4791 5.2439H15.7764V59.1787H72.4791V5.2439Z" fill="#D0CDE1"/>
<path d="M66.0356 11.687H22.2198V45.1916H66.0356V11.687Z" fill="white"/>
<path d="M46.0092 49.1443H22.1764V50.3986H46.0092V49.1443Z" fill="#F2F2F2"/>
<path d="M46.0092 52.9072H22.1764V54.1615H46.0092V52.9072Z" fill="#F2F2F2"/>
<path d="M30.0162 33.4655C32.7873 33.4655 35.0336 31.2193 35.0336 28.4483C35.0336 25.6774 32.7873 23.4312 30.0162 23.4312C27.2452 23.4312 24.9988 25.6774 24.9988 28.4483C24.9988 31.2193 27.2452 33.4655 30.0162 33.4655Z" fill="#3F3D56"/>
<path d="M44.1277 33.4655C46.8987 33.4655 49.1451 31.2193 49.1451 28.4483C49.1451 25.6774 46.8987 23.4312 44.1277 23.4312C41.3566 23.4312 39.1102 25.6774 39.1102 28.4483C39.1102 31.2193 41.3566 33.4655 44.1277 33.4655Z" fill="#8494A1"/>
<path d="M58.2392 33.4655C61.0103 33.4655 63.2567 31.2193 63.2567 28.4483C63.2567 25.6774 61.0103 23.4312 58.2392 23.4312C55.4682 23.4312 53.2218 25.6774 53.2218 28.4483C53.2218 31.2193 55.4682 33.4655 58.2392 33.4655Z" fill="#E6E6E6"/>
<path d="M44.1277 10.8882C45.5133 10.8882 46.6364 9.76503 46.6364 8.37957C46.6364 6.99411 45.5133 5.87097 44.1277 5.87097C42.7422 5.87097 41.619 6.99411 41.619 8.37957C41.619 9.76503 42.7422 10.8882 44.1277 10.8882Z" fill="#3F3D56"/>
<path d="M99.4493 109.678H42.7465V163.612H99.4493V109.678Z" fill="#D0CDE1"/>
<path d="M93.0058 116.121H49.19V149.625H93.0058V116.121Z" fill="white"/>
<path d="M74.1924 121.627H58.8317V136.987H74.1924V121.627Z" fill="#8494A1"/>
<path d="M64.7119 125.468V144.119H83.3642V125.468H64.7119ZM82.5552 143.31H65.521V126.277H82.5552V143.31Z" fill="#3F3D56"/>
<path d="M72.9794 152.951H49.1466V154.205H72.9794V152.951Z" fill="#F2F2F2"/>
<path d="M71.0979 115.322C72.4834 115.322 73.6066 114.199 73.6066 112.813C73.6066 111.428 72.4834 110.305 71.0979 110.305C69.7124 110.305 68.5892 111.428 68.5892 112.813C68.5892 114.199 69.7124 115.322 71.0979 115.322Z" fill="#3F3D56"/>
<path d="M247.079 93.5308H190.377V147.466H247.079V93.5308Z" fill="#D0CDE1"/>
<path d="M240.636 99.9739H196.82V133.478H240.636V99.9739Z" fill="white"/>
<path d="M223.441 126.203H214.015V128.996H223.441V126.203Z" fill="#3F3D56"/>
<path d="M234.837 104.456H202.62V105.653H234.837V104.456Z" fill="#3F3D56"/>
<path d="M234.837 108.247H202.62V109.444H234.837V108.247Z" fill="#3F3D56"/>
<path d="M234.837 112.038H202.62V113.235H234.837V112.038Z" fill="#3F3D56"/>
<path d="M234.837 115.828H202.62V117.025H234.837V115.828Z" fill="#3F3D56"/>
<path d="M234.837 119.619H202.62V120.816H234.837V119.619Z" fill="#3F3D56"/>
<path d="M220.61 136.804H196.777V138.058H220.61V136.804Z" fill="#F2F2F2"/>
<path d="M230.017 139.94H196.777V141.194H230.017V139.94Z" fill="#F2F2F2"/>
<path d="M218.728 99.1751C220.114 99.1751 221.237 98.052 221.237 96.6665C221.237 95.281 220.114 94.1579 218.728 94.1579C217.343 94.1579 216.219 95.281 216.219 96.6665C216.219 98.052 217.343 99.1751 218.728 99.1751Z" fill="#3F3D56"/>
</svg>
